<mxfile host="app.diagrams.net" modified="2021-06-25T18:27:05.390Z" agent="5.0 (Windows NT 10.0; WOW64) AppleWebKit/537.36 (KHTML, like Gecko) Chrome/91.0.4472.114 Safari/537.36" etag="lVMnfoGnORuJGRYOWLl6" version="14.8.0" type="github">
  <diagram id="vNRMRKKJf5wKEcz3gSLy" name="Page-1">
    <mxGraphModel dx="1108" dy="482" grid="1" gridSize="10" guides="1" tooltips="1" connect="1" arrows="1" fold="1" page="1" pageScale="1" pageWidth="850" pageHeight="1100" math="0" shadow="0">
      <root>
        <mxCell id="0" />
        <mxCell id="1" parent="0" />
        <mxCell id="AiOEn3oT4aggU7Xl83LP-1" value="ec2-linux--&amp;gt;8gb of EBS&lt;br&gt;5*8=40" style="rounded=1;whiteSpace=wrap;html=1;" vertex="1" parent="1">
          <mxGeometry x="50" y="20" width="190" height="60" as="geometry" />
        </mxCell>
        <mxCell id="AiOEn3oT4aggU7Xl83LP-2" value="192.168.33.0&lt;br&gt;33.1&lt;br&gt;33.2&lt;br&gt;33.3&lt;br&gt;" style="rounded=1;whiteSpace=wrap;html=1;" vertex="1" parent="1">
          <mxGeometry x="20" y="100" width="240" height="110" as="geometry" />
        </mxCell>
        <mxCell id="AiOEn3oT4aggU7Xl83LP-3" value="docker host" style="rounded=1;whiteSpace=wrap;html=1;" vertex="1" parent="1">
          <mxGeometry x="300" y="350" width="360" height="60" as="geometry" />
        </mxCell>
        <mxCell id="AiOEn3oT4aggU7Xl83LP-4" value="deafult bridge" style="rounded=1;whiteSpace=wrap;html=1;" vertex="1" parent="1">
          <mxGeometry x="305" y="240" width="120" height="60" as="geometry" />
        </mxCell>
        <mxCell id="AiOEn3oT4aggU7Xl83LP-5" value="custom bridge" style="rounded=1;whiteSpace=wrap;html=1;" vertex="1" parent="1">
          <mxGeometry x="550" y="240" width="120" height="60" as="geometry" />
        </mxCell>
        <mxCell id="AiOEn3oT4aggU7Xl83LP-6" value="C1" style="text;html=1;strokeColor=none;fillColor=none;align=center;verticalAlign=middle;whiteSpace=wrap;rounded=0;" vertex="1" parent="1">
          <mxGeometry x="310" y="180" width="40" height="20" as="geometry" />
        </mxCell>
        <mxCell id="AiOEn3oT4aggU7Xl83LP-7" value="C2" style="text;html=1;strokeColor=none;fillColor=none;align=center;verticalAlign=middle;whiteSpace=wrap;rounded=0;" vertex="1" parent="1">
          <mxGeometry x="360" y="180" width="40" height="20" as="geometry" />
        </mxCell>
        <mxCell id="AiOEn3oT4aggU7Xl83LP-8" value="c3" style="text;html=1;strokeColor=none;fillColor=none;align=center;verticalAlign=middle;whiteSpace=wrap;rounded=0;" vertex="1" parent="1">
          <mxGeometry x="550" y="180" width="40" height="20" as="geometry" />
        </mxCell>
        <mxCell id="AiOEn3oT4aggU7Xl83LP-9" value="c4" style="text;html=1;strokeColor=none;fillColor=none;align=center;verticalAlign=middle;whiteSpace=wrap;rounded=0;" vertex="1" parent="1">
          <mxGeometry x="640" y="180" width="40" height="20" as="geometry" />
        </mxCell>
        <mxCell id="AiOEn3oT4aggU7Xl83LP-10" value="c2" style="text;html=1;strokeColor=none;fillColor=none;align=center;verticalAlign=middle;whiteSpace=wrap;rounded=0;" vertex="1" parent="1">
          <mxGeometry x="510" y="80" width="40" height="20" as="geometry" />
        </mxCell>
        <mxCell id="AiOEn3oT4aggU7Xl83LP-11" value="" style="endArrow=classic;html=1;entryX=0;entryY=1;entryDx=0;entryDy=0;" edge="1" parent="1" target="AiOEn3oT4aggU7Xl83LP-10">
          <mxGeometry width="50" height="50" relative="1" as="geometry">
            <mxPoint x="400" y="240" as="sourcePoint" />
            <mxPoint x="450" y="190" as="targetPoint" />
          </mxGeometry>
        </mxCell>
        <mxCell id="AiOEn3oT4aggU7Xl83LP-12" value="" style="endArrow=classic;html=1;entryX=0.75;entryY=1;entryDx=0;entryDy=0;" edge="1" parent="1" target="AiOEn3oT4aggU7Xl83LP-10">
          <mxGeometry width="50" height="50" relative="1" as="geometry">
            <mxPoint x="620" y="230" as="sourcePoint" />
            <mxPoint x="540" y="140" as="targetPoint" />
          </mxGeometry>
        </mxCell>
      </root>
    </mxGraphModel>
  </diagram>
</mxfile>
